# xmcd
#
# Track frame offsets:
#	150
#	33372
#	42532
#	62702
#	94382
#	130100
#	151022
#	179652
#
# Disc length: 2770 seconds
#
# Revision: 1
# Processed by: cddbd v1.5.1PL0 Copyright (c) Steve Scherf et al.
# Submitted via: CDex 1.50Beta5
#
DISCID=690ad008
DTITLE=ドリーム・ドルフィン - HEALING TRACKS
DYEAR=2001
DGENRE=Pop
TTITLE0=STARS
TTITLE1=AMBIENT-8
TTITLE2=EARTH,SUN&MOON(CAN YOU SEE THE SPACE?)
TTITLE3=GENESIS(NEW AGE AMBIENCE),THE
TTITLE4=FOREST OF LOVE(EXTENDED)
TTITLE5=GREAT BLUE FEELING
TTITLE6=ISLAND HUMMING
TTITLE7=WHITE SEA
EXTD=
EXTT0=
EXTT1=
EXTT2=
EXTT3=
EXTT4=
EXTT5=
EXTT6=
EXTT7=
PLAYORDER=
